#!OML:ASF F:\VICON\USERDATA\INSTALL\rory3\rory3.ASF
:FULLY-SPECIFIED
:DEGREES
4672
root -3.39286 16.4812 -0.85596 7.75768 -81.1788 -1.36811
lowerback 15.9633 1.22137 -0.659015
upperback 2.7031 1.56095 2.99662
thorax -6.16948 0.742146 3.24081
lowerneck -23.1244 8.79296 -5.44235
upperneck 21.4535 13.157 3.56235
head 9.99324 6.02712 4.04218
rclavicle 2.18663e-014 -1.59028e-014
rhumerus -30.0258 4.24514 -76.3291
rradius 91.1238
rwrist -21.0597
rhand -2.93921 25.3176
rfingers 7.12502
rthumb 22.7723 -3.35834
lclavicle 2.18663e-014 -1.59028e-014
lhumerus 1.42962 21.7932 58.5622
lradius 100.116
lwrist 6.94554
lhand -14.7241 6.41804
lfingers 7.12502
lthumb 11.4308 36.0864
rfemur -20.1203 2.7558 6.29672
rtibia 50.0409
rfoot -26.4661 10.6188
rtoes -12.3455
lfemur -36.3531 2.33165 2.80561
ltibia 31.6556
lfoot 7.31546 13.9559
ltoes -16.8011
4673
root -3.45402 16.4255 -0.716404 4.17586 -82.8016 2.21493
lowerback 16.0538 1.33006 -1.33584
upperback 2.85862 1.57538 2.91896
thorax -6.06973 0.756863 3.54065
lowerneck -22.8894 9.3415 -5.44764
upperneck 21.2505 13.9994 3.15612
head 9.86722 6.37486 3.98562
rclavicle 1.55052e-014 -1.43125e-014
rhumerus -31.16 4.10383 -75.6373
rradius 89.0805
rwrist -22.555
rhand -2.35422 25.2559
rfingers 7.12502
rthumb 23.3336 -3.34987
lclavicle 1.55052e-014 -1.43125e-014
lhumerus 0.873872 23.5948 56.7855
lradius 98.8887
lwrist 7.35737
lhand -14.4685 6.2451
lfingers 7.12502
lthumb 11.6773 35.8997
rfemur -20.6365 3.14486 5.00463
rtibia 50.5645
rfoot -26.3526 11.7288
rtoes -11.262
lfemur -35.1539 0.637686 4.26562
ltibia 29.8496
lfoot 9.65932 14.9622
ltoes -17.6479
4674
root -3.50886 16.3703 -0.571744 -3.7329 -84.0589 9.81283
lowerback 16.5591 1.34577 -2.18401
upperback 3.11261 1.42481 2.85083
thorax -6.08078 0.689513 3.98336
lowerneck -22.8971 9.86457 -5.68875
upperneck 21.187 14.889 2.81598
head 9.81168 6.72602 4.0125
rclavicle 7.15625e-015 7.95139e-015
rhumerus -32.2197 3.97428 -74.9099
rradius 87.2534
rwrist -23.7667
rhand -1.95959 25.0781
rfingers 7.12502
rthumb 23.7121 -3.4792
lclavicle 7.15625e-015 7.95139e-015
lhumerus 0.193575 25.5133 55.0344
lradius 97.7418
lwrist 7.61443
lhand -14.455 6.52863
lfingers 7.12502
lthumb 11.6904 36.1825
rfemur -20.7849 3.51505 3.38096
rtibia 51.1227
rfoot -25.9143 13.1267
rtoes -10.9066
lfemur -33.8695 -1.34334 5.26027
ltibia 28.2616
lfoot 12.2261 15.1815
ltoes -19.5953
4675
root -3.56523 16.3083 -0.418492 -12.8927 -85.0609 18.8068
lowerback 16.9466 1.34877 -2.68503
upperback 3.2856 1.31159 2.68729
thorax -6.10279 0.635112 4.11862
lowerneck -22.9209 10.3454 -5.78579
upperneck 21.1528 15.6358 2.61712
head 9.77585 7.0401 4.0505
rclavicle 1.63003e-014 7.95139e-016
rhumerus -33.3939 3.36256 -74.3394
rradius 85.5938
rwrist -24.3304
rhand -2.10467 25.0638
rfingers 7.12502
rthumb 23.573 -3.51148
lclavicle 1.63003e-014 7.95139e-016
lhumerus -0.287362 27.2219 53.2506
lradius 96.4255
lwrist 8.10911
lhand -14.205 6.15426
lfingers 7.12502
lthumb 11.9315 35.7942
rfemur -21.0329 3.84853 1.84873
rtibia 51.7117
rfoot -25.3236 14.5924
rtoes -10.3531
lfemur -32.9307 -3.0883 6.19099
ltibia 27.0045
lfoot 14.0671 15.3624
ltoes -19.3813
4676
root -3.62651 16.2432 -0.25987 -22.0333 -85.8517 28.0073
lowerback 17.1838 1.36052 -2.74897
upperback 3.30501 1.29032 2.42438
thorax -6.20362 0.624022 3.87641
lowerneck -22.7818 10.7789 -5.49459
upperneck 21.0893 16.2157 2.2504
head 9.76071 7.28726 3.94851
rclavicle -1.74931e-014 -1.66979e-014
rhumerus -34.9181 2.23348 -73.8628
rradius 84.2633
rwrist -24.4242
rhand -2.34407 25.1081
rfingers 7.12502
rthumb 23.3433 -3.49649
lclavicle -1.74931e-014 -1.66979e-014
lhumerus -0.528125 28.501 51.5221
lradius 95.0351
lwrist 8.97249
lhand -14.0935 5.71902
lfingers 7.12502
lthumb 12.0389 35.3527
rfemur -21.4823 4.12612 0.54552
rtibia 52.3135
rfoot -24.8933 15.6043
rtoes -10.8493
lfemur -32.4802 -4.18767 6.96936
ltibia 26.2138
lfoot 15.4629 14.8854
ltoes -18.8408
4677
root -3.69334 16.18 -0.0969782 -31.9043 -86.3896 37.961
lowerback 17.3179 1.35267 -2.70043
upperback 3.35308 1.26557 2.1857
thorax -6.21588 0.607004 3.59698
lowerneck -22.6699 11.1408 -5.12182
upperneck 20.9523 16.6931 1.78724
head 9.75042 7.4837 3.79129
rclavicle 1.35174e-014 1.66979e-014
rhumerus -36.6189 0.936733 -73.2882
rradius 83.288
rwrist -24.1343
rhand -2.53546 25.4137
rfingers 7.12502
rthumb 23.1597 -3.21405
lclavicle 1.35174e-014 1.66979e-014
lhumerus -0.574112 29.6839 50.0235
lradius 93.8616
lwrist 10.28
lhand -14.35 6.72108
lfingers 7.12502
lthumb 11.7917 36.3691
rfemur -21.9132 4.35902 -0.659646
rtibia 52.8961
rfoot -24.4403 16.4533
rtoes -12.3059
lfemur -32.4063 -4.59171 7.33169
ltibia 26.0227
lfoot 16.5969 13.2266
ltoes -21.1355
4678
root -3.76193 16.1137 0.0720889 -42.1519 -86.617 48.4464
lowerback 17.1264 1.28078 -2.82838
upperback 3.47314 1.1423 2.11574
thorax -5.97429 0.540861 3.62315
lowerneck -22.6122 11.4949 -4.92901
upperneck 20.6663 17.2387 1.22938
head 9.69283 7.69391 3.63283
rclavicle 3.97569e-015 -7.95139e-016
rhumerus -38.1539 0.0191136 -72.3897
rradius 82.6404
rwrist -23.9069
rhand -2.81644 25.7427
rfingers 7.12502
rthumb 22.8901 -2.91866
lclavicle 3.97569e-015 -7.95139e-016
lhumerus -0.602013 31.1774 48.8006
lradius 92.8838
lwrist 12.0756
lhand -14.3351 7.70654
lfingers 7.12502
lthumb 11.806 37.3538
rfemur -22.4221 4.42749 -1.95295
rtibia 53.4126
rfoot -23.6695 17.6072
rtoes -13.1715
lfemur -32.8375 -4.19769 7.14453
ltibia 26.4698
lfoot 16.4719 11.209
ltoes -25.9916
